<svg width="40" height="36" viewBox="0 0 40 36" fill="none" xmlns="http://www.w3.org/2000/svg">
<g clip-path="url(#clip0_1_419)">
<path d="M0.0727273 27.9346C0.193927 27.7426 0.387855 27.7306 0.654545 27.8986C6.71513 31.3782 13.3091 33.118 20.4364 33.118C25.1879 33.118 29.8788 32.2421 34.5091 30.4903C34.6303 30.4423 34.806 30.3703 35.0364 30.2743C35.2667 30.1783 35.4303 30.1063 35.5273 30.0583C35.8909 29.9144 36.1757 29.9864 36.3818 30.2743C36.5879 30.5623 36.5212 30.8262 36.1818 31.0662C35.7455 31.3782 35.1879 31.7382 34.5091 32.1461C32.4242 33.3699 30.0969 34.3178 27.5273 34.9898C24.9576 35.6617 22.4485 35.9976 20 35.9976C16.2182 35.9976 12.6424 35.3437 9.27273 34.0359C5.90302 32.728 2.88484 30.8862 0.218182 28.5105C0.0727273 28.3906 0 28.2705 0 28.1506C0 28.0786 0.0242182 28.0066 0.0727273 27.9346ZM11.0182 17.6758C11.0182 16.02 11.4303 14.6042 12.2545 13.4283C13.0788 12.2525 14.206 11.3646 15.6364 10.7647C16.9455 10.2127 18.5576 9.81679 20.4727 9.5768C21.1273 9.50481 22.1939 9.40881 23.6727 9.28884V8.67691C23.6727 7.14108 23.503 6.10923 23.1636 5.58128C22.6545 4.86137 21.8545 4.50141 20.7636 4.50141H20.4727C19.6727 4.5734 18.9818 4.82537 18.4 5.25732C17.8182 5.68927 17.4424 6.28921 17.2727 7.05711C17.1757 7.53704 16.9333 7.81302 16.5455 7.88501L12.3636 7.38107C11.9515 7.28507 11.7455 7.06909 11.7455 6.73315C11.7455 6.66115 11.7576 6.57718 11.7818 6.48118C12.1939 4.34544 13.206 2.76163 14.8182 1.72975C16.4303 0.697858 18.3151 0.121927 20.4727 0.00195312H21.3818C24.1455 0.00195312 26.303 0.70988 27.8545 2.1257C28.0979 2.36676 28.3228 2.62545 28.5273 2.89961C28.7333 3.17558 28.8969 3.42154 29.0182 3.63752C29.1394 3.85349 29.2485 4.16547 29.3455 4.5734C29.4424 4.98134 29.5151 5.26333 29.5636 5.4193C29.6121 5.57527 29.6485 5.91126 29.6727 6.42718C29.6969 6.94311 29.7091 7.24907 29.7091 7.34507V16.056C29.7091 16.6799 29.8 17.2499 29.9818 17.7658C30.1636 18.2817 30.3394 18.6537 30.5091 18.8817C30.6788 19.1096 30.9576 19.4756 31.3455 19.9796C31.4909 20.1955 31.5636 20.3875 31.5636 20.5555C31.5636 20.7475 31.4667 20.9154 31.2727 21.0594C29.2606 22.7872 28.1697 23.7231 28 23.8671C27.7091 24.0831 27.3576 24.1071 26.9455 23.9391C26.606 23.6511 26.3091 23.3751 26.0545 23.1112C25.8 22.8472 25.6182 22.6552 25.5091 22.5352C25.4 22.4153 25.2242 22.1813 24.9818 21.8333C24.7394 21.4854 24.5697 21.2514 24.4727 21.1314C23.1151 22.5953 21.7818 23.5071 20.4727 23.8671C19.6485 24.1071 18.6303 24.227 17.4182 24.227C15.5515 24.227 14.0182 23.6571 12.8182 22.5173C11.6182 21.3774 11.0182 19.7636 11.0182 17.6758ZM17.2727 16.9559C17.2727 17.8918 17.5091 18.6417 17.9818 19.2056C18.4545 19.7696 19.0909 20.0515 19.8909 20.0515C19.9636 20.0515 20.0667 20.0396 20.2 20.0156C20.3333 19.9915 20.4242 19.9796 20.4727 19.9796C21.4909 19.7156 22.2788 19.0677 22.8364 18.0358C23.103 17.5798 23.303 17.0819 23.4364 16.542C23.5697 16.002 23.6424 15.5641 23.6545 15.2281C23.6667 14.8922 23.6727 14.3402 23.6727 13.5723V12.6724C22.2667 12.6724 21.2 12.7684 20.4727 12.9604C18.3394 13.5603 17.2727 14.8922 17.2727 16.9559ZM32.5455 28.5465C32.5939 28.4505 32.6667 28.3546 32.7636 28.2586C33.3697 27.8506 33.9515 27.5746 34.5091 27.4307C35.4303 27.1907 36.3273 27.0587 37.2 27.0347C37.4424 27.0107 37.6727 27.0227 37.8909 27.0707C38.9818 27.1667 39.6364 27.3467 39.8545 27.6106C39.9515 27.7546 40 27.9706 40 28.2586V28.5105C40 29.3504 39.7697 30.3403 39.3091 31.4802C38.8485 32.6201 38.206 33.5379 37.3818 34.2338C37.2606 34.3298 37.1515 34.3778 37.0545 34.3778C37.006 34.3778 36.9576 34.3658 36.9091 34.3418C36.7636 34.2698 36.7273 34.1378 36.8 33.9459C37.6969 31.8581 38.1455 30.4063 38.1455 29.5904C38.1455 29.3264 38.0969 29.1344 38 29.0145C37.7576 28.7265 37.0788 28.5825 35.9636 28.5825C35.5515 28.5825 35.0667 28.6065 34.5091 28.6545C33.903 28.7265 33.3455 28.7985 32.8364 28.8705C32.6909 28.8705 32.5939 28.8465 32.5455 28.7985C32.4969 28.7505 32.4848 28.7025 32.5091 28.6545C32.5091 28.6305 32.5212 28.5945 32.5455 28.5465Z" fill="#F3F3F3"/>
</g>
<defs>
<clipPath id="clip0_1_419">
<rect width="40" height="36" fill="white"/>
</clipPath>
</defs>
</svg>
