<svg width="40" height="40" viewBox="0 0 40 40" fill="none" xmlns="http://www.w3.org/2000/svg">
<g clip-path="url(#clip0_1_416)">
<path d="M39.9944 10.2087C39.9944 8.97875 39.8906 7.75375 39.5969 6.55625C39.0694 4.375 37.8256 2.70875 35.9644 1.485C35.0069 0.86 33.9532 0.47625 32.8331 0.27375C31.9732 0.1175 31.1019 0.04625 30.2294 0.02625C30.1644 0.02 30.0932 0.00625 30.0207 0H9.9819C9.72815 0.02 9.4744 0.0325 9.22065 0.045C7.9769 0.11625 6.74065 0.24625 5.56815 0.715C3.3419 1.59375 1.73315 3.13 0.795649 5.34375C0.470649 6.0925 0.306899 6.88625 0.190649 7.69375C0.0931494 8.345 0.0406494 9.0025 0.0218994 9.66C0.0218994 9.7125 0.00939941 9.76375 0.00939941 9.81625V30.1875C0.0218994 30.4225 0.0356494 30.6562 0.0481494 30.8912C0.133149 32.2525 0.308149 33.6 0.881899 34.85C1.96315 37.2137 3.7794 38.7687 6.27315 39.5175C6.9694 39.7325 7.6994 39.83 8.42815 39.895C9.35315 39.9862 10.2769 39.9987 11.2019 39.9987H29.5869C30.4594 39.9987 31.3319 39.94 32.2044 39.83C33.5782 39.6537 34.8669 39.25 36.0331 38.4825C37.4332 37.5575 38.4881 36.3337 39.1644 34.8037C39.4769 34.1 39.6531 33.3525 39.7831 32.5962C39.9719 31.47 40.0107 30.33 40.0107 29.1912C40.0044 22.8625 40.0106 16.535 40.0044 10.2062L39.9944 10.2087ZM29.2906 16.855V26.3737C29.2906 27.07 29.1931 27.7537 28.8806 28.385C28.3994 29.3675 27.6181 29.9862 26.5694 30.2862C25.9894 30.455 25.3906 30.5462 24.7856 30.5725C23.2031 30.6512 21.8294 29.5762 21.5494 28.0137C21.3081 26.725 21.9269 25.305 23.2807 24.6412C23.8144 24.3812 24.3944 24.225 24.9732 24.1075C25.6044 23.9712 26.2357 23.8475 26.8607 23.7037C27.3232 23.6 27.6219 23.32 27.7132 22.8437C27.7394 22.74 27.7456 22.6287 27.7456 22.525C27.7456 19.4975 27.7456 16.47 27.7456 13.45C27.7456 13.3462 27.7256 13.2412 27.7006 13.1437C27.6356 12.89 27.4531 12.74 27.1931 12.7525C26.9256 12.765 26.6656 12.8112 26.4057 12.8637C25.1357 13.1112 23.8669 13.365 22.6031 13.625L16.4381 14.8687C16.4119 14.875 16.3794 14.8887 16.3531 14.8887C15.8906 15.0187 15.7281 15.2275 15.7081 15.7087C15.7019 15.78 15.7081 15.8525 15.7081 15.9237C15.7019 20.26 15.7081 24.5962 15.7019 28.9312C15.7019 29.635 15.6231 30.325 15.3444 30.975C14.8819 32.0425 14.0619 32.7137 12.9557 33.0325C12.3694 33.2012 11.7706 33.3 11.1581 33.3187C9.56315 33.3775 8.2344 32.3162 7.9619 30.7475C7.7269 29.3937 8.34565 27.935 9.8819 27.2837C10.4806 27.0362 11.0994 26.9 11.7306 26.77C12.2056 26.6725 12.6881 26.575 13.1631 26.4775C13.8006 26.3412 14.1331 25.9375 14.1656 25.2862V25.0387C14.1656 20.1037 14.1656 15.1687 14.1656 10.2337C14.1656 10.025 14.1919 9.8175 14.2369 9.615C14.3544 9.14 14.6931 8.86625 15.1481 8.755C15.5719 8.64375 16.0082 8.56625 16.4369 8.475C17.6607 8.2275 18.8781 7.98 20.1019 7.73875L23.8844 6.97C25.0044 6.74875 26.1169 6.52125 27.2369 6.3C27.6019 6.22875 27.9731 6.15 28.3431 6.12375C28.8569 6.07875 29.2156 6.40375 29.2681 6.925C29.2806 7.04875 29.2882 7.1725 29.2882 7.29625C29.2882 10.48 29.2882 13.6637 29.2882 16.8475L29.2906 16.855Z" fill="#F3F3F3"/>
</g>
<defs>
<clipPath id="clip0_1_416">
<rect width="40" height="40" fill="white"/>
</clipPath>
</defs>
</svg>
