<svg width="226" height="32" viewBox="0 0 226 32" fill="none" xmlns="http://www.w3.org/2000/svg">
<g clip-path="url(#clip0_1_378)">
<path d="M12.0839 31.5378C10.3042 31.5378 8.65156 31.296 7.12605 30.8124C5.60055 30.3289 4.31518 29.6035 3.26993 28.6364C2.22468 27.6693 1.47606 26.4604 1.02406 25.0098C0.600305 23.5591 0.543805 21.8666 0.854555 19.9324C1.08056 18.7093 1.32068 17.4862 1.57493 16.2631C1.85743 15.04 2.13993 13.8026 2.42243 12.5511C3.35468 8.71108 5.03556 5.79553 7.46506 3.80442C9.89456 1.81331 13.1716 0.817749 17.2961 0.817749C19.0758 0.817749 20.7143 1.07375 22.2116 1.58575C23.7371 2.06931 25.0224 2.80886 26.0677 3.80442C27.1412 4.79997 27.8898 6.02308 28.3136 7.47375C28.7656 8.92442 28.8221 10.6169 28.4831 12.5511C28.2853 13.8026 28.0452 15.04 27.7627 16.2631C27.5084 17.4862 27.2401 18.7093 26.9576 19.9324C25.9971 23.8293 24.3021 26.7449 21.8726 28.6791C19.4431 30.5849 16.1802 31.5378 12.0839 31.5378ZM12.6348 25.3938C14.1603 25.3938 15.5022 24.9386 16.6604 24.0284C17.8187 23.1182 18.6379 21.6675 19.1182 19.6764C19.4289 18.4249 19.6973 17.2444 19.9233 16.1351C20.1776 15.0258 20.4036 13.8738 20.6013 12.6791C20.9686 10.688 20.7991 9.23731 20.0928 8.32708C19.3866 7.41686 18.2707 6.96175 16.7452 6.96175C15.2197 6.96175 13.8778 7.41686 12.7196 8.32708C11.5896 9.23731 10.7844 10.688 10.3042 12.6791C9.99343 13.8738 9.71093 15.0258 9.45668 16.1351C9.23068 17.2444 9.00468 18.4249 8.77868 19.6764C8.43968 21.6675 8.60918 23.1182 9.28718 24.0284C9.96518 24.9386 11.0811 25.3938 12.6348 25.3938ZM32.9712 31.1111C32.6887 31.1111 32.4627 31.0115 32.2932 30.8124C32.1237 30.6133 32.0672 30.3573 32.1237 30.0444L37.9714 2.31108C38.0279 1.9982 38.1833 1.7422 38.4376 1.54308C38.6918 1.34397 38.9602 1.24442 39.2427 1.24442H50.5144C52.2377 1.24442 53.7914 1.44353 55.1757 1.84175C56.5882 2.23997 57.7606 2.85153 58.6928 3.67642C59.6251 4.50131 60.2748 5.53953 60.6421 6.79108C61.0093 8.01419 61.0234 9.45064 60.6844 11.1004C59.9782 14.3715 58.5374 16.7893 56.3622 18.3538C54.2152 19.9182 51.3196 20.7004 47.6753 20.7004H41.9547L40.0054 30.0444C39.9489 30.3573 39.7936 30.6133 39.5393 30.8124C39.3133 31.0115 39.0449 31.1111 38.7342 31.1111H32.9712ZM43.0564 14.8124H47.9296C49.0878 14.8124 50.1189 14.4995 51.0229 13.8738C51.9552 13.248 52.5626 12.2951 52.8451 11.0151C52.9863 10.2755 53.0146 9.62131 52.9298 9.05242C52.8451 8.48353 52.5484 8.02842 52.0399 7.68708C51.5597 7.34575 50.8111 7.17508 49.7941 7.17508H44.7091L43.0564 14.8124ZM68.5145 31.1111C68.2038 31.1111 67.9637 31.0115 67.7942 30.8124C67.6247 30.6133 67.5682 30.3573 67.6247 30.0444L72.3283 7.94308H64.7855C64.503 7.94308 64.277 7.84353 64.1075 7.64442C63.938 7.41686 63.8815 7.16086 63.938 6.87642L64.9127 2.31108C64.9692 1.9982 65.1104 1.7422 65.3364 1.54308C65.5907 1.34397 65.8732 1.24442 66.1839 1.24442H88.9813C89.2921 1.24442 89.5181 1.34397 89.6593 1.54308C89.8288 1.7422 89.8853 1.9982 89.8288 2.31108L88.8542 6.87642C88.7977 7.16086 88.6423 7.41686 88.3881 7.64442C88.1624 7.84353 87.894 7.94308 87.5833 7.94308H80.0405L75.3793 30.0444C75.3228 30.3573 75.1674 30.6133 74.9132 30.8124C74.6872 31.0115 74.4188 31.1111 74.108 31.1111H68.5145ZM90.7169 31.1111C90.4062 31.1111 90.166 31.0115 89.9966 30.8124C89.827 30.6133 89.7705 30.3573 89.827 30.0444L95.7172 2.31108C95.7737 1.9982 95.929 1.7422 96.1833 1.54308C96.4375 1.34397 96.7059 1.24442 96.9884 1.24442H102.709C102.992 1.24442 103.218 1.34397 103.387 1.54308C103.557 1.7422 103.613 1.9982 103.557 2.31108L97.6664 30.0444C97.6099 30.3573 97.4545 30.6133 97.2003 30.8124C96.9743 31.0115 96.72 31.1111 96.4375 31.1111H90.7169ZM108.1 31.1111C107.79 31.1111 107.55 31.0115 107.38 30.8124C107.211 30.6133 107.154 30.3573 107.211 30.0444L113.058 2.31108C113.115 1.9982 113.27 1.7422 113.524 1.54308C113.779 1.34397 114.061 1.24442 114.372 1.24442H118.948C119.4 1.24442 119.711 1.37242 119.881 1.62842C120.078 1.85597 120.206 2.04086 120.262 2.18308L124.839 15.6658L135.178 2.18308C135.263 2.04086 135.432 1.85597 135.687 1.62842C135.969 1.37242 136.336 1.24442 136.788 1.24442H141.365C141.676 1.24442 141.916 1.34397 142.085 1.54308C142.255 1.7422 142.311 1.9982 142.255 2.31108L136.407 30.0444C136.35 30.3573 136.195 30.6133 135.941 30.8124C135.687 31.0115 135.404 31.1111 135.093 31.1111H130.008C129.726 31.1111 129.5 31.0115 129.33 30.8124C129.161 30.6133 129.104 30.3573 129.161 30.0444L132.466 14.3004L125.983 22.9618C125.785 23.1893 125.545 23.4169 125.262 23.6444C125.008 23.8435 124.683 23.9431 124.288 23.9431H122.084C121.689 23.9431 121.406 23.8435 121.237 23.6444C121.067 23.4453 120.94 23.2178 120.855 22.9618L117.847 13.9164L114.414 30.0444C114.358 30.3573 114.202 30.6133 113.948 30.8124C113.722 31.0115 113.468 31.1111 113.185 31.1111H108.1ZM145.48 31.1111C145.17 31.1111 144.93 31.0115 144.76 30.8124C144.591 30.6133 144.534 30.3573 144.591 30.0444L150.481 2.31108C150.537 1.9982 150.693 1.7422 150.947 1.54308C151.201 1.34397 151.469 1.24442 151.752 1.24442H157.473C157.755 1.24442 157.981 1.34397 158.151 1.54308C158.32 1.7422 158.377 1.9982 158.32 2.31108L152.43 30.0444C152.373 30.3573 152.218 30.6133 151.964 30.8124C151.738 31.0115 151.484 31.1111 151.201 31.1111H145.48ZM172.27 31.5378C169.445 31.5378 167.129 31.1395 165.321 30.3431C163.541 29.5466 162.256 28.4942 161.465 27.1858C160.702 25.8489 160.434 24.4409 160.66 22.9618C160.716 22.7342 160.829 22.5351 160.999 22.3644C161.196 22.1653 161.422 22.0658 161.677 22.0658H167.101C167.496 22.0658 167.779 22.1369 167.948 22.2791C168.118 22.4213 168.287 22.6062 168.456 22.8337C168.57 23.2604 168.796 23.6729 169.135 24.0711C169.474 24.4693 169.94 24.7964 170.533 25.0524C171.154 25.28 171.917 25.3938 172.821 25.3938C174.46 25.3938 175.773 25.1378 176.762 24.6258C177.751 24.1138 178.33 23.4169 178.499 22.5351C178.669 21.9093 178.556 21.3973 178.16 20.9991C177.793 20.5724 177.129 20.2026 176.169 19.8897C175.237 19.5484 173.979 19.2071 172.397 18.8658C170.335 18.4106 168.64 17.7849 167.312 16.9884C165.985 16.1635 165.052 15.1253 164.516 13.8738C164.007 12.5938 163.937 11.072 164.304 9.30842C164.869 6.69153 166.267 4.62931 168.499 3.12175C170.731 1.58575 173.626 0.817749 177.186 0.817749C179.022 0.817749 180.646 1.07375 182.059 1.58575C183.5 2.09775 184.7 2.78042 185.661 3.63375C186.621 4.48708 187.313 5.39731 187.737 6.36442C188.161 7.30308 188.302 8.22753 188.161 9.13775C188.133 9.36531 188.02 9.57864 187.822 9.77775C187.624 9.94842 187.398 10.0338 187.144 10.0338H181.466C181.183 10.0338 180.929 9.97686 180.703 9.86308C180.505 9.74931 180.336 9.56442 180.194 9.30842C180.194 8.68264 179.87 8.14219 179.22 7.68708C178.57 7.20353 177.708 6.96175 176.635 6.96175C175.42 6.96175 174.403 7.18931 173.584 7.64442C172.765 8.07108 172.256 8.73953 172.058 9.64975C171.917 10.2186 171.988 10.7164 172.27 11.1431C172.581 11.5698 173.146 11.9395 173.965 12.2524C174.813 12.5653 175.971 12.8924 177.44 13.2338C179.926 13.7173 181.875 14.3715 183.288 15.1964C184.7 15.9929 185.647 17.0026 186.127 18.2257C186.635 19.4489 186.706 20.9422 186.339 22.7058C185.717 25.6071 184.206 27.8115 181.805 29.3191C179.432 30.7982 176.254 31.5378 172.27 31.5378ZM191.555 31.1111C191.245 31.1111 191.004 31.0115 190.835 30.8124C190.665 30.6133 190.609 30.3573 190.665 30.0444L196.513 2.31108C196.57 1.9982 196.725 1.7422 196.979 1.54308C197.234 1.34397 197.516 1.24442 197.827 1.24442H202.403C202.855 1.24442 203.166 1.37242 203.336 1.62842C203.533 1.85597 203.66 2.04086 203.717 2.18308L208.293 15.6658L218.633 2.18308C218.718 2.04086 218.887 1.85597 219.141 1.62842C219.424 1.37242 219.791 1.24442 220.243 1.24442H224.82C225.13 1.24442 225.371 1.34397 225.54 1.54308C225.71 1.7422 225.766 1.9982 225.71 2.31108L219.862 30.0444C219.805 30.3573 219.65 30.6133 219.396 30.8124C219.141 31.0115 218.859 31.1111 218.548 31.1111H213.463C213.181 31.1111 212.955 31.0115 212.785 30.8124C212.616 30.6133 212.559 30.3573 212.616 30.0444L215.921 14.3004L209.438 22.9618C209.24 23.1893 209 23.4169 208.717 23.6444C208.463 23.8435 208.138 23.9431 207.743 23.9431H205.539C205.144 23.9431 204.861 23.8435 204.692 23.6444C204.522 23.4453 204.395 23.2178 204.31 22.9618L201.302 13.9164L197.869 30.0444C197.813 30.3573 197.657 30.6133 197.403 30.8124C197.177 31.0115 196.923 31.1111 196.64 31.1111H191.555Z" fill="#FF0420"/>
</g>
<defs>
<clipPath id="clip0_1_378">
<rect width="226" height="32" fill="white"/>
</clipPath>
</defs>
</svg>
