<svg width="24" height="22" viewBox="0 0 24 22" fill="none" xmlns="http://www.w3.org/2000/svg">
<path d="M20.9466 6.10481C20.9604 6.31637 20.9604 6.52793 20.9604 6.74145C20.9604 13.2472 16.3169 20.7503 7.82599 20.7503V20.7464C5.31776 20.7503 2.86164 19.984 0.750122 18.5392C1.11484 18.586 1.48138 18.6094 1.84884 18.6103C3.92745 18.6123 5.94665 17.8684 7.58193 16.4986C5.60661 16.4587 3.87444 15.085 3.26932 13.0795C3.96127 13.2219 4.67425 13.1926 5.35341 12.9947C3.19985 12.5306 1.65049 10.5125 1.65049 8.16876C1.65049 8.14731 1.65049 8.12683 1.65049 8.10636C2.29217 8.48756 3.01063 8.69912 3.74555 8.72252C1.71722 7.27669 1.09199 4.39867 2.31685 2.14851C4.66054 5.22444 8.11849 7.09437 11.8306 7.29229C11.4585 5.58224 11.9668 3.79031 13.166 2.58821C15.0253 0.724125 17.9494 0.819669 19.6971 2.80172C20.7309 2.58431 21.7218 2.17971 22.6286 1.60644C22.2839 2.74615 21.5627 3.71426 20.5993 4.32945C21.5143 4.2144 22.4083 3.95312 23.2501 3.55437C22.6304 4.54491 21.8498 5.40773 20.9466 6.10481Z" fill="#7CF2D0"/>
</svg>
